<?xml version="1.0" encoding="UTF-8" standalone="no"?>
<svg
   version="1.0"
   width="650pt"
   height="650pt"
   viewBox="0 0 650.00002 649.99997"
   preserveAspectRatio="xMidYMid"
   id="svg28"
   sodipodi:docname="wp.svg"
   inkscape:version="1.2.2 (b0a8486541, 2022-12-01)"
   xmlns:inkscape="http://www.inkscape.org/namespaces/inkscape"
   xmlns:sodipodi="http://sodipodi.sourceforge.net/DTD/sodipodi-0.dtd"
   xmlns="http://www.w3.org/2000/svg"
   xmlns:svg="http://www.w3.org/2000/svg">
  <defs
     id="defs32" />
  <sodipodi:namedview
     id="namedview30"
     pagecolor="#ffffff"
     bordercolor="#666666"
     borderopacity="1.0"
     inkscape:showpageshadow="2"
     inkscape:pageopacity="0.0"
     inkscape:pagecheckerboard="0"
     inkscape:deskcolor="#d1d1d1"
     inkscape:document-units="pt"
     showgrid="false"
     inkscape:zoom="0.67178375"
     inkscape:cx="262.73336"
     inkscape:cy="501.64952"
     inkscape:window-width="1534"
     inkscape:window-height="929"
     inkscape:window-x="66"
     inkscape:window-y="32"
     inkscape:window-maximized="1"
     inkscape:current-layer="svg28" />
  <metadata
     id="metadata2">
Created by potrace 1.12, written by Peter Selinger 2001-2015
</metadata>
  <g
     transform="matrix(0.1,0,0,-0.1,-24.102558,705.38971)"
     fill="#000000"
     stroke="none"
     id="g26">
    <path
       d="m 4223,6986 c -295,-96 -557,-372 -679,-716 -28,-80 -30,-81 -58,-76 -16,3 -50,6 -76,6 h -47 l -7,46 c -13,101 -92,296 -159,394 -41,59 -141,164 -197,205 -149,110 -384,170 -451,116 -31,-25 -36,-108 -16,-262 38,-291 188,-563 356,-647 l 57,-29 -50,-54 c -68,-74 -129,-170 -193,-308 -58,-123 -159,-266 -292,-415 -78,-88 -98,-123 -107,-189 -9,-66 13,-175 47,-235 34,-60 110,-125 188,-159 94,-42 173,-55 313,-51 71,2 128,0 128,-3 0,-3 -14,-45 -30,-95 -38,-111 -70,-234 -70,-268 0,-14 -2,-26 -5,-26 -2,0 -25,13 -49,29 -65,41 -124,54 -211,49 -107,-7 -183,-47 -273,-143 l -70,-75 -325,7 -325,6 -26,-26 -26,-27 2,-1112 c 3,-1094 3,-1114 24,-1169 46,-128 137,-240 256,-317 93,-59 1343,-770 1413,-804 124,-58 301,-59 433,-4 32,14 276,150 542,303 267,153 584,335 705,403 195,111 229,134 301,205 57,56 90,99 112,145 63,129 62,98 62,1277 v 1072 l -24,28 -24,28 h -159 c -87,0 -270,-2 -407,-5 l -248,-5 -28,75 c -48,133 -117,249 -274,459 -160,216 -170,252 -172,646 -1,325 -7,370 -66,504 l -24,55 73,48 c 166,112 242,267 340,693 43,191 53,317 29,380 -10,25 -26,50 -36,55 -30,16 -100,11 -177,-14 z m 53,-223 c -14,-149 -120,-542 -168,-623 -29,-48 -113,-135 -168,-173 -71,-49 -130,-100 -130,-113 0,-7 18,-50 40,-96 65,-135 73,-191 75,-518 1,-227 5,-299 18,-355 26,-108 105,-255 216,-402 106,-141 164,-233 210,-336 l 29,-64 -160,-7 c -300,-14 -367,-51 -428,-241 -37,-112 -88,-147 -161,-109 -35,18 -59,67 -59,121 0,56 42,137 102,196 86,85 176,117 277,97 47,-9 57,-8 74,7 10,10 22,16 26,13 3,-3 7,4 9,16 2,14 -10,33 -37,56 -72,66 -198,73 -331,20 -51,-21 -84,-44 -152,-110 l -88,-85 -237,8 c -131,4 -240,9 -242,11 -3,2 17,92 43,198 35,145 58,216 89,278 l 42,83 123,61 c 168,84 203,119 181,184 -22,62 -70,65 -172,10 -157,-85 -331,-126 -502,-117 -110,5 -175,23 -247,68 -48,31 -67,58 -47,69 6,4 36,10 66,14 30,3 68,13 84,21 31,17 59,61 59,95 0,59 -64,130 -117,130 -37,0 -28,23 44,117 37,48 86,113 109,143 23,31 56,92 73,136 23,58 53,109 108,180 90,116 90,116 215,200 154,103 266,117 464,59 17,-6 22,-1 27,23 12,62 118,328 158,398 80,139 235,282 396,366 41,21 79,38 85,38 7,0 9,-22 4,-67 z m -1504,23 c 206,-85 413,-348 426,-540 l 4,-71 -51,-25 -52,-24 -57,19 c -66,23 -155,86 -195,139 -77,100 -157,337 -157,462 0,74 0,74 82,40 z m -61,-2661 c 41,-15 79,-41 79,-55 0,-3 -25,-17 -55,-29 -79,-33 -137,-100 -158,-185 -26,-106 -63,-142 -125,-120 -47,17 -67,58 -67,137 1,86 22,134 85,191 80,72 155,91 241,61 z M 5258,2960 c 2,-631 -1,-1003 -8,-1055 -14,-108 -54,-188 -128,-256 -42,-38 -237,-155 -757,-452 -385,-220 -722,-409 -750,-420 -68,-27 -192,-27 -256,-1 -25,10 -358,197 -739,414 -519,296 -707,408 -750,447 -64,59 -112,142 -129,221 -8,37 -11,362 -11,1064 v 1011 l 92,-7 c 50,-3 160,-6 245,-6 h 153 v -58 c 0,-32 7,-79 16,-105 20,-58 96,-144 149,-168 71,-33 196,-18 248,29 35,31 66,97 89,187 l 23,90 341,3 341,2 5,-68 c 11,-156 106,-265 244,-279 148,-16 228,58 284,260 11,40 27,77 35,83 9,7 212,15 587,23 315,7 580,14 588,16 8,2 31,2 50,2 l 35,-2 z"
       id="path4" />
    <path
       d="m 3878,6393 c -23,-27 -86,-173 -100,-231 -13,-59 -8,-68 38,-78 l 31,-6 13,69 c 8,39 30,99 52,141 43,83 44,85 22,106 -20,21 -37,20 -56,-1 z"
       id="path6" />
    <path
       d="m 3253,5579 c -79,-23 -110,-125 -57,-188 55,-66 162,-64 203,3 36,57 21,142 -29,174 -27,16 -81,22 -117,11 z"
       id="path8" />
    <path
       d="m 1812,3388 c -18,-18 -15,-66 6,-77 10,-5 75,-13 145,-17 137,-7 157,-2 157,41 0,35 -18,43 -120,49 -52,4 -113,9 -135,12 -25,3 -45,0 -53,-8 z"
       id="path10" />
    <path
       d="m 4943,3373 c -68,-4 -91,-23 -78,-63 9,-28 36,-32 163,-22 129,10 151,21 131,65 -12,26 -15,27 -83,25 -39,-1 -99,-3 -133,-5 z"
       id="path12" />
    <path
       d="m 2250,3330 c -13,-25 -5,-57 18,-69 10,-5 71,-11 136,-12 107,-3 119,-2 132,16 19,26 18,32 -11,60 -23,24 -30,25 -144,25 -111,0 -121,-2 -131,-20 z"
       id="path14" />
    <path
       d="m 4565,3341 c -55,-3 -106,-10 -112,-14 -18,-11 -16,-62 2,-77 20,-17 248,-9 270,10 34,28 6,92 -38,88 -12,-1 -67,-4 -122,-7 z"
       id="path16" />
    <path
       d="m 2686,3314 c -20,-19 -20,-34 -1,-60 12,-19 28,-22 141,-28 111,-6 128,-5 145,10 26,23 24,59 -3,78 -33,23 -260,23 -282,0 z"
       id="path18" />
    <path
       d="m 4020,3310 c -26,-26 -25,-56 3,-73 17,-10 51,-12 145,-8 105,5 126,9 137,24 14,19 11,40 -8,65 -7,8 -46,12 -133,12 -111,0 -126,-2 -144,-20 z"
       id="path20" />
    <path
       d="m 3138,3310 c -21,-13 -24,-70 -6,-88 8,-8 53,-12 138,-12 85,0 130,4 138,12 19,19 15,66 -8,78 -29,16 -241,24 -262,10 z"
       id="path22" />
    <path
       d="m 3640,3313 c -51,-5 -80,-26 -80,-58 0,-40 17,-45 157,-45 129,0 133,1 148,24 19,28 9,58 -25,76 -18,10 -106,11 -200,3 z"
       id="path24" />
  </g>
</svg>
